<?xml version="1.0" standalone="no"?><!DOCTYPE svg PUBLIC "-//W3C//DTD SVG 1.1//EN" "http://www.w3.org/Graphics/SVG/1.1/DTD/svg11.dtd"><svg t="1489752671689" class="icon" style="" viewBox="0 0 3782 1024" version="1.1" xmlns="http://www.w3.org/2000/svg" p-id="10187" xmlns:xlink="http://www.w3.org/1999/xlink" width="118.1875" height="32"><defs><style type="text/css"></style></defs><path d="M498.382979 126.638298c43.574468 4.085106 66.723404 31.319149 72.170212 78.978723 0 23.148936-1.361702 50.382979-4.085106 81.702128 24.510638 246.468085 132.085106 419.404255 321.361702 520.170213 36.765957 27.234043 43.574468 65.361702 20.425532 113.021276-29.957447 43.574468-70.808511 51.744681-122.553191 24.510639-134.808511-84.425532-227.404255-206.978723-280.510639-369.021277C461.617021 721.702128 363.574468 845.617021 211.06383 949.106383c-43.574468 24.510638-80.340426 17.702128-113.021277-20.425532-20.425532-43.574468-10.893617-80.340426 27.234043-108.93617C310.468085 704 408.510638 541.957447 419.404255 332.255319c0-13.617021 1.361702-38.12766 4.085107-72.170213v-65.361702c1.361702-40.851064 27.234043-62.638298 74.893617-68.085106zM1015.829787 123.914894c43.574468 13.617021 59.914894 38.12766 51.744681 74.893617h450.723404c38.12766 2.723404 59.914894 23.148936 61.276596 61.276595-4.085106 34.042553-24.510638 53.106383-61.276596 58.553192H1004.93617c-20.425532 38.12766-46.297872 78.978723-78.978723 119.829787-31.319149 29.957447-65.361702 31.319149-99.404256 4.085106-31.319149-36.765957-34.042553-72.170213-6.80851-106.212765 44.93617-57.191489 80.340426-113.021277 102.127659-167.489362 19.06383-39.489362 50.382979-54.468085 93.957447-44.93617z m491.574468 574.638297c4.085106-27.234043 23.148936-39.489362 54.468085-38.127659 29.957447 4.085106 43.574468 24.510638 40.851064 61.276596-2.723404 40.851064-6.808511 80.340426-13.617021 119.829787-9.531915 73.531915-46.297872 111.659574-113.021277 115.744681-77.617021 4.085106-126.638298-32.680851-147.063829-113.021277-13.617021-43.574468-20.425532-91.234043-20.425532-142.978723v-40.851064c2.723404-13.617021-4.085106-19.06383-20.425532-17.702128H868.765957c-38.12766-2.723404-59.914894-24.510638-61.276595-65.361702 2.723404-38.12766 23.148936-59.914894 61.276595-61.276596H1375.319149c57.191489-4.085106 83.06383 21.787234 78.978723 78.978724v68.085106c0 53.106383 4.085106 95.319149 10.893617 129.361702 2.723404 23.148936 8.170213 34.042553 17.702128 34.042553 9.531915-2.723404 16.340426-13.617021 20.425532-34.042553 2.723404-10.893617 4.085106-27.234043 4.085106-47.659574-1.361702-19.06383 0-35.404255 0-46.297873z m-40.851064-334.978723c34.042553 2.723404 51.744681 20.425532 54.468086 54.468085-2.723404 34.042553-20.425532 53.106383-54.468086 54.468085H1015.829787c-34.042553-2.723404-53.106383-20.425532-54.468085-54.468085 2.723404-34.042553 20.425532-51.744681 54.468085-54.468085h450.723404zM2150.12766 117.106383c38.12766 4.085106 58.553191 24.510638 58.553191 61.276596v47.659574h92.595745c57.191489-2.723404 83.06383 24.510638 78.978723 81.702128v266.893617c4.085106 16.340426 8.170213 24.510638 10.893617 24.510638 6.808511 0 10.893617-8.170213 10.893617-24.510638 4.085106-27.234043 6.808511-55.829787 6.808511-85.787234 9.531915-23.148936 24.510638-31.319149 47.659574-27.234043 20.425532 4.085106 31.319149 20.425532 31.319149 47.659575-2.723404 17.702128-5.446809 46.297872-10.893617 85.787234-2.723404 16.340426-4.085106 27.234043-4.085106 34.042553-13.617021 66.723404-46.297872 99.404255-99.404255 99.404255-70.808511-2.723404-108.93617-51.744681-113.021277-147.063829v-6.808511c0 4.085106-1.361702 10.893617-4.085106 20.425532 2.723404-4.085106 1.361702-2.723404-4.085107 6.80851-27.234043 31.319149-57.191489 38.12766-88.510638 20.425532-2.723404-2.723404-6.808511-5.446809-13.617021-10.893617-4.085106-4.085106-9.531915-8.170213-13.617022-10.893617-24.510638 40.851064-58.553191 81.702128-99.404255 122.553192-29.957447 27.234043-59.914894 28.595745-92.595745 4.085106-27.234043-29.957447-28.595745-59.914894-4.085106-92.595745 44.93617-36.765957 76.255319-70.808511 92.595745-102.127659-4.085106-2.723404-10.893617-6.808511-17.702128-13.617021-9.531915-4.085106-16.340426-8.170213-20.425532-10.893617l-6.808511-6.808511c-4.085106-4.085106-8.170213-6.808511-10.893617-6.808511-6.808511 16.340426-23.148936 25.87234-47.659574 31.319149-10.893617 2.723404-23.148936 4.085106-34.042553 4.085107v74.893617c2.723404 84.425532-28.595745 126.638298-92.595745 126.638298-34.042553 0-55.829787 1.361702-65.361702 4.085106-38.12766-2.723404-61.276596-20.425532-68.085106-54.468085 0-36.765957 16.340426-57.191489 47.659574-61.276596h20.425532c24.510638 0 38.12766-12.255319 38.127659-38.127659v-34.042554c-20.425532 0-38.12766 2.723404-54.468085 6.808511-36.765957 0-59.914894-17.702128-72.170212-54.468085 0-40.851064 19.06383-65.361702 58.553191-72.170213h27.234043c17.702128-2.723404 31.319149-4.085106 40.851063-4.085106v-74.893617h-61.276595c-36.765957-4.085106-57.191489-24.510638-61.276596-58.553192 4.085106-38.12766 24.510638-59.914894 61.276596-61.276596h61.276595v-54.468085c2.723404-36.765957 21.787234-55.829787 58.553192-58.553191 38.12766 2.723404 59.914894 21.787234 61.276596 58.553191v54.468085h20.425532c34.042553 4.085106 53.106383 24.510638 58.553191 61.276596-4.085106 34.042553-24.510638 53.106383-58.553191 58.553192h-20.425532v61.276595c10.893617 0 23.148936-1.361702 34.042553-4.085106 20.425532 0 36.765957 8.170213 47.659574 24.510638 24.510638-29.957447 51.744681-36.765957 81.702128-20.425532 6.808511 2.723404 10.893617 5.446809 13.617021 10.893617 4.085106-24.510638 8.170213-49.021277 10.893617-72.170212h-38.127659c-36.765957-4.085106-57.191489-24.510638-61.276596-61.276596 4.085106-38.12766 24.510638-59.914894 61.276596-61.276596h38.127659c0-17.702128 1.361702-34.042553 4.085107-47.659574 6.808511-38.12766 27.234043-58.553191 62.638298-61.276596z m83.063829 232.851064h-27.234042c-2.723404 47.659574-8.170213 92.595745-17.702128 133.446808 6.808511 4.085106 14.978723 10.893617 24.510638 17.702128 6.808511 2.723404 10.893617 4.085106 13.617022 6.808511 17.702128 9.531915 29.957447 25.87234 34.042553 51.74468V373.106383c1.361702-16.340426-6.808511-23.148936-27.234043-23.148936zM3095.148936 599.148936c0 20.425532-2.723404 39.489362-6.80851 58.553192h219.234042c34.042553 2.723404 51.744681 20.425532 54.468085 54.468085-2.723404 31.319149-20.425532 49.021277-54.468085 51.744681h-212.425532c34.042553 10.893617 87.148936 29.957447 160.680851 54.468085 13.617021 4.085106 24.510638 8.170213 31.319149 10.893617 36.765957 16.340426 49.021277 43.574468 38.12766 81.702127-16.340426 34.042553-44.93617 44.93617-85.787234 31.319149-81.702128-31.319149-163.404255-62.638298-242.382979-92.595744-47.659574 44.93617-164.765957 81.702128-352.680851 108.93617-47.659574 4.085106-77.617021-12.255319-88.510638-51.744681-6.808511-38.12766 9.531915-62.638298 47.659574-72.170213 148.425532-16.340426 242.382979-39.489362 283.234043-72.170213h-307.744681c-34.042553-2.723404-53.106383-19.06383-54.468085-51.74468 2.723404-34.042553 20.425532-51.744681 54.468085-54.468085h208.340425c-66.723404-13.617021-119.829787-25.87234-160.680851-38.12766-20.425532-6.808511-28.595745-24.510638-24.510638-51.744681 6.808511-17.702128 24.510638-25.87234 54.468085-24.510638 68.085106 13.617021 130.723404 28.595745 187.914894 44.93617 20.425532 9.531915 31.319149 25.87234 31.319149 51.744681-2.723404 6.808511-6.808511 12.255319-13.617022 17.702128h88.510639c4.085106-13.617021 6.808511-31.319149 6.80851-51.744681v-27.234043c2.723404-23.148936 4.085106-39.489362 4.085107-51.744681 6.808511-40.851064 31.319149-64 72.170212-68.085106 40.851064 4.085106 64 29.957447 68.085107 74.893617 0 6.808511-1.361702 17.702128-4.085107 34.042553 0 14.978723-1.361702 25.87234-2.723404 32.680851z m-212.425532-113.021276c24.510638 9.531915 35.404255 25.87234 31.319149 51.74468-9.531915 24.510638-27.234043 35.404255-54.468085 31.319149-16.340426-4.085106-47.659574-12.255319-95.319149-24.510638-46.297872-10.893617-77.617021-19.06383-95.319149-24.510638-23.148936-9.531915-31.319149-25.87234-27.234042-51.744681 0-6.808511 4.085106-10.893617 10.893617-13.617021h-68.085107c-34.042553-2.723404-53.106383-20.425532-54.468085-54.468085 2.723404-34.042553 20.425532-51.744681 54.468085-54.468086h290.042553v-40.851063h-239.659574c-31.319149-2.723404-49.021277-20.425532-51.744681-54.468086 4.085106-31.319149 21.787234-49.021277 51.744681-51.74468h239.659574v-6.808511c4.085106-40.851064 27.234043-64 68.085107-68.085106 40.851064 4.085106 64 27.234043 68.085106 68.085106v6.808511h242.382979c34.042553 2.723404 51.744681 19.06383 54.468085 51.74468-2.723404 34.042553-20.425532 53.106383-54.468085 54.468086H3009.361702v40.851063h269.617021c31.319149 2.723404 49.021277 19.06383 51.744681 51.744681 0 34.042553-4.085106 68.085106-13.617021 102.12766l-10.893617 51.744681c-16.340426 38.12766-42.212766 55.829787-78.978723 51.744681-36.765957-9.531915-53.106383-32.680851-51.744681-72.170213l13.617021-54.468085c4.085106-16.340426-1.361702-23.148936-17.702128-20.425532H2723.404255c13.617021 2.723404 34.042553 5.446809 61.276596 10.893617 47.659574 8.170213 78.978723 14.978723 98.042553 19.06383z" fill="#FF2000" p-id="10188"></path><path d="M2408.851064 721.702128h-430.297873c-28.595745-55.829787-87.148936-95.319149-153.87234-95.319149-95.319149 0-172.93617 77.617021-172.93617 172.93617 0 95.319149 77.617021 172.93617 172.93617 172.93617 68.085106 0 125.276596-39.489362 153.87234-95.319149h430.297873c42.212766 0 77.617021-35.404255 77.617021-77.617021S2451.06383 721.702128 2408.851064 721.702128z" fill="#FF2000" p-id="10189"></path><path d="M1824.680851 985.87234c-102.12766 0-186.553191-83.06383-186.553191-186.553191S1721.191489 612.765957 1824.680851 612.765957c68.085106 0 129.361702 36.765957 162.042553 95.319149h422.12766a91.234043 91.234043 0 0 1 0 182.468085h-422.12766c-32.680851 58.553191-93.957447 95.319149-162.042553 95.319149z m0-345.87234c-87.148936 0-159.319149 70.808511-159.319149 159.319149s70.808511 159.319149 159.319149 159.319149c59.914894 0 114.382979-34.042553 141.617021-87.148936l4.085107-8.170213h438.468085c35.404255 0 64-28.595745 64-64s-28.595745-64-64-64h-438.468085l-4.085107-8.170213c-27.234043-53.106383-81.702128-87.148936-141.617021-87.148936z" fill="#FFFFFF" p-id="10190"></path><path d="M2408.851064 863.319149h-118.468085v-129.361702h118.468085c35.404255 0 65.361702 28.595745 65.361702 64-1.361702 36.765957-29.957447 65.361702-65.361702 65.361702z" fill="#FF988D" p-id="10191"></path><path d="M2244.085106 787.06383h-9.531915c-4.085106 0-6.808511-2.723404-6.80851-6.808511v-54.468085c0-4.085106 2.723404-6.808511 6.80851-6.808511h9.531915c4.085106 0 6.808511 2.723404 6.808511 6.808511v54.468085c0 4.085106-2.723404 6.808511-6.808511 6.808511zM2129.702128 787.06383h-9.531915c-4.085106 0-6.808511-2.723404-6.808511-6.808511v-54.468085c0-4.085106 2.723404-6.808511 6.808511-6.808511h9.531915c4.085106 0 6.808511 2.723404 6.80851 6.808511v54.468085c0 4.085106-4.085106 6.808511-6.80851 6.808511zM2009.87234 810.212766h-9.531914c-4.085106 0-6.808511-4.085106-6.808511-9.531915l-27.234043-73.531915c0-5.446809 2.723404-9.531915 6.808511-9.531915h36.765957c4.085106 0 6.808511 4.085106 6.808511 9.531915v73.531915c0 5.446809-4.085106 9.531915-6.808511 9.531915zM2374.808511 787.06383h-9.531915c-4.085106 0-6.808511-2.723404-6.808511-6.808511v-54.468085c0-4.085106 2.723404-6.808511 6.808511-6.808511h9.531915c4.085106 0 6.808511 2.723404 6.80851 6.808511v54.468085c0 4.085106-2.723404 6.808511-6.80851 6.808511z" fill="#FFFFFF" p-id="10192"></path><path d="M3695.659574 343.148936c0 13.617021-16.340426 25.87234-17.702127 39.489362-1.361702 13.617021 10.893617 29.957447 6.80851 42.212766-4.085106 13.617021-23.148936 20.425532-27.234042 34.042553-5.446809 12.255319 2.723404 31.319149-4.085106 43.574468-6.808511 12.255319-27.234043 14.978723-35.404256 25.872341-8.170213 10.893617-5.446809 31.319149-14.978723 40.851063-9.531915 9.531915-29.957447 6.808511-40.851064 14.978724-10.893617 8.170213-13.617021 28.595745-25.87234 35.404255-12.255319 6.808511-31.319149-1.361702-43.574469 4.085106-12.255319 5.446809-20.425532 24.510638-34.042553 27.234043-13.617021 4.085106-29.957447-9.531915-42.212766-6.808511-13.617021 1.361702-25.87234 17.702128-39.489361 17.702128s-25.87234-16.340426-39.489362-17.702128c-13.617021-1.361702-29.957447 10.893617-42.212766 6.808511-13.617021-4.085106-20.425532-23.148936-34.042553-27.234043-12.255319-5.446809-31.319149 2.723404-43.574468-4.085106-12.255319-6.808511-14.978723-27.234043-25.872341-35.404255-10.893617-8.170213-31.319149-5.446809-40.851064-14.978724-9.531915-9.531915-6.808511-29.957447-14.978723-40.851063-8.170213-10.893617-28.595745-13.617021-35.404255-25.872341-6.808511-12.255319 1.361702-31.319149-4.085107-43.574468-5.446809-12.255319-24.510638-20.425532-27.234042-34.042553-4.085106-13.617021 9.531915-29.957447 6.80851-42.212766-1.361702-13.617021-17.702128-25.87234-17.702127-39.489362s16.340426-25.87234 17.702127-39.489362c1.361702-13.617021-10.893617-29.957447-6.80851-42.212765 4.085106-13.617021 23.148936-20.425532 27.234042-34.042554 5.446809-12.255319-2.723404-31.319149 4.085107-43.574468 6.808511-12.255319 27.234043-14.978723 35.404255-25.87234 8.170213-10.893617 5.446809-31.319149 14.978723-40.851064 9.531915-9.531915 29.957447-6.808511 40.851064-14.978723 10.893617-8.170213 13.617021-28.595745 25.872341-35.404256 12.255319-6.808511 31.319149 1.361702 43.574468-4.085106 12.255319-5.446809 20.425532-24.510638 34.042553-27.234043 13.617021-4.085106 29.957447 9.531915 42.212766 6.808511 13.617021-1.361702 25.87234-17.702128 39.489362-17.702128s25.87234 16.340426 39.489361 17.702128c13.617021 1.361702 29.957447-10.893617 42.212766-6.808511 13.617021 4.085106 20.425532 23.148936 34.042553 27.234043 12.255319 5.446809 31.319149-2.723404 43.574469 4.085106 12.255319 6.808511 14.978723 27.234043 25.87234 35.404256 10.893617 8.170213 31.319149 5.446809 40.851064 14.978723 9.531915 9.531915 6.808511 29.957447 14.978723 40.851064 8.170213 10.893617 28.595745 13.617021 35.404256 25.87234 6.808511 12.255319-1.361702 31.319149 4.085106 43.574468 5.446809 12.255319 24.510638 20.425532 27.234042 34.042554 4.085106 13.617021-9.531915 29.957447-6.80851 42.212765 1.361702 13.617021 17.702128 25.87234 17.702127 39.489362z" fill="#D69400" p-id="10193"></path><path d="M3662.978723 333.617021c0 12.255319-14.978723 24.510638-16.340425 36.765958-1.361702 12.255319 9.531915 27.234043 6.808511 39.489361-2.723404 12.255319-20.425532 19.06383-25.872341 31.319149-5.446809 12.255319 2.723404 29.957447-4.085106 40.851064-6.808511 10.893617-25.87234 13.617021-32.680851 23.148936-8.170213 9.531915-5.446809 28.595745-13.617022 38.12766-9.531915 9.531915-27.234043 6.808511-38.127659 13.617021-9.531915 8.170213-12.255319 27.234043-23.148936 32.680851-10.893617 6.808511-28.595745-1.361702-40.851064 4.085107-10.893617 5.446809-19.06383 21.787234-31.319149 25.87234-12.255319 2.723404-27.234043-8.170213-39.489362-6.808511-12.255319 1.361702-24.510638 16.340426-36.765957 16.340426s-24.510638-14.978723-36.765958-16.340426c-12.255319-1.361702-27.234043 9.531915-39.489361 6.808511-12.255319-2.723404-19.06383-20.425532-31.319149-25.87234-12.255319-5.446809-29.957447 2.723404-40.851064-4.085107-10.893617-6.808511-13.617021-25.87234-23.148936-32.680851-9.531915-8.170213-28.595745-5.446809-38.12766-13.617021-9.531915-9.531915-6.808511-27.234043-13.617021-38.12766-8.170213-9.531915-27.234043-12.255319-32.680851-23.148936-6.808511-10.893617 1.361702-28.595745-4.085107-40.851064-5.446809-10.893617-21.787234-19.06383-25.87234-31.319149-2.723404-12.255319 8.170213-27.234043 6.808511-39.489361-1.361702-12.255319-16.340426-24.510638-16.340426-36.765958 0-12.255319 14.978723-24.510638 16.340426-36.765957 1.361702-12.255319-9.531915-27.234043-6.808511-39.489362 2.723404-12.255319 20.425532-19.06383 25.87234-31.319149 5.446809-12.255319-2.723404-29.957447 4.085107-40.851064 6.808511-10.893617 25.87234-13.617021 32.680851-23.148936 8.170213-9.531915 5.446809-28.595745 13.617021-38.127659 9.531915-9.531915 27.234043-6.808511 38.12766-13.617022 9.531915-8.170213 12.255319-27.234043 23.148936-32.680851 10.893617-6.808511 28.595745 1.361702 40.851064-4.085106 10.893617-5.446809 19.06383-21.787234 31.319149-25.872341 12.255319-2.723404 27.234043 8.170213 39.489361 6.808511 12.255319-1.361702 24.510638-16.340426 36.765958-16.340425s24.510638 14.978723 36.765957 16.340425c12.255319 1.361702 27.234043-9.531915 39.489362-6.808511 12.255319 2.723404 19.06383 20.425532 31.319149 25.872341 12.255319 5.446809 29.957447-2.723404 40.851064 4.085106 10.893617 6.808511 13.617021 25.87234 23.148936 32.680851 9.531915 8.170213 28.595745 5.446809 38.127659 13.617022 9.531915 9.531915 6.808511 27.234043 13.617022 38.127659 8.170213 9.531915 27.234043 12.255319 32.680851 23.148936 6.808511 10.893617-1.361702 28.595745 4.085106 40.851064 5.446809 10.893617 21.787234 19.06383 25.872341 31.319149 2.723404 12.255319-8.170213 27.234043-6.808511 39.489362 1.361702 13.617021 16.340426 24.510638 16.340425 36.765957z" fill="#FFB600" p-id="10194"></path><path d="M3262.638298 398.978723c-1.361702 0-9.531915 2.723404-23.148936 6.808511 0 0-1.361702 1.361702-4.085107 1.361702-21.787234 6.808511-34.042553 12.255319-35.404255 17.702128v6.80851c0 5.446809 1.361702 12.255319 4.085106 16.340426 9.531915 29.957447 4.085106 47.659574-14.978723 53.106383-16.340426 5.446809-27.234043-2.723404-32.680851-25.87234-1.361702-6.808511-2.723404-20.425532-2.723404-39.489362 0-32.680851-2.723404-58.553191-8.170213-78.978724 0-1.361702-2.723404-2.723404-5.446809-5.446808-6.808511-5.446809-12.255319-12.255319-13.617021-21.787234 9.531915 1.361702 19.06383-2.723404 28.595745-12.255319 4.085106-4.085106 8.170213-6.808511 10.893617-8.170213 14.978723-9.531915 24.510638 0 28.595744 27.234043V354.042553c1.361702 12.255319 1.361702 19.06383 1.361703 21.787234 8.170213-2.723404 19.06383-6.808511 32.680851-12.255319 16.340426-5.446809 27.234043-10.893617 31.319149-12.255319 1.361702-6.808511-1.361702-20.425532-8.170213-42.212766 0-2.723404-2.723404-5.446809-5.446809-6.808511-5.446809-2.723404-9.531915-8.170213-12.255319-17.702127 8.170213 1.361702 14.978723-1.361702 20.425532-9.531915 5.446809-6.808511 10.893617-10.893617 17.702128-12.255319 14.978723-4.085106 24.510638 2.723404 28.595744 21.787234 1.361702 4.085106 1.361702 9.531915 0 16.340425s-2.723404 12.255319-1.361702 17.702128c0 1.361702 1.361702 4.085106 1.361702 8.170213 5.446809 34.042553 12.255319 68.085106 19.06383 102.127659 2.723404 12.255319-4.085106 23.148936-21.787234 29.957447-17.702128 8.170213-27.234043 2.723404-31.319149-14.978723 0-1.361702-1.361702-13.617021-2.723404-32.680851v-9.531915l-1.361702-2.723405zM3326.638298 378.553191c-10.893617-44.93617-5.446809-84.425532 16.340425-118.468085 19.06383-25.87234 46.297872-34.042553 81.702128-27.234042 28.595745 9.531915 44.93617 31.319149 51.744681 68.085106 6.808511 61.276596-13.617021 102.12766-61.276596 121.19149-47.659574 16.340426-77.617021 1.361702-88.510638-43.574469z m91.234042 1.361703c9.531915-6.808511 14.978723-19.06383 17.702128-38.12766 2.723404-19.06383 0-35.404255-5.446808-50.382979-10.893617-20.425532-24.510638-27.234043-40.851064-21.787234-23.148936 20.425532-31.319149 50.382979-20.425532 92.595745 9.531915 24.510638 25.87234 29.957447 49.021276 17.702128zM3468.255319 224.680851c-1.361702-6.808511 0-14.978723 1.361702-20.425532 4.085106 8.170213 17.702128 4.085106 39.489362-12.255319 16.340426-12.255319 28.595745-20.425532 38.12766-23.148936 40.851064-16.340426 64-13.617021 68.085106 8.170213 4.085106 24.510638-12.255319 40.851064-46.297872 50.382978-1.361702 6.808511 0 20.425532 4.085106 38.12766 1.361702 5.446809 1.361702 10.893617 1.361702 13.617021 0 1.361702 1.361702 5.446809 1.361702 9.531915 0 8.170213 1.361702 14.978723 4.085107 19.06383 16.340426 34.042553 9.531915 55.829787-17.702128 62.638298-12.255319 4.085106-20.425532 2.723404-24.510638-4.085107-4.085106-6.808511-8.170213-24.510638-10.893617-54.468085 0-4.085106-1.361702-10.893617-2.723405-19.06383-1.361702-23.148936-4.085106-39.489362-6.80851-47.659574-27.234043 10.893617-43.574468 4.085106-49.021277-20.425532z" fill="#BA6100" p-id="10195"></path><path d="M3250.382979 397.617021c-1.361702 0-9.531915 2.723404-23.148936 6.808511 0 0-1.361702 1.361702-4.085107 1.361702-21.787234 6.808511-34.042553 12.255319-35.404255 17.702128v6.80851c0 5.446809 1.361702 12.255319 4.085106 16.340426 9.531915 29.957447 4.085106 47.659574-14.978723 53.106383-16.340426 5.446809-27.234043-2.723404-32.680851-25.872341-1.361702-6.808511-2.723404-20.425532-2.723404-39.489361 0-32.680851-2.723404-58.553191-8.170213-78.978724 0-1.361702-2.723404-2.723404-5.446809-5.446808-6.808511-5.446809-12.255319-12.255319-13.617021-21.787234 9.531915 1.361702 19.06383-2.723404 28.595745-12.255319 4.085106-4.085106 8.170213-6.808511 10.893617-8.170213 14.978723-9.531915 24.510638 0 28.595744 27.234042v17.702128c1.361702 12.255319 1.361702 19.06383 1.361702 21.787234 8.170213-2.723404 19.06383-6.808511 32.680852-12.255319 16.340426-5.446809 27.234043-10.893617 31.319148-12.255319 1.361702-6.808511-1.361702-20.425532-8.170212-42.212766 0-2.723404-2.723404-5.446809-5.446809-6.808511-5.446809-2.723404-9.531915-8.170213-12.255319-17.702127 8.170213 1.361702 14.978723-1.361702 20.425532-9.531915 5.446809-6.808511 10.893617-10.893617 17.702128-12.255319 14.978723-4.085106 24.510638 2.723404 28.595744 21.787234 1.361702 4.085106 1.361702 9.531915 0 16.340425s-2.723404 12.255319-1.361702 17.702128c0 1.361702 1.361702 4.085106 1.361702 8.170213 5.446809 34.042553 12.255319 68.085106 19.06383 102.127659 2.723404 12.255319-4.085106 23.148936-21.787234 29.957447-17.702128 8.170213-27.234043 2.723404-31.319149-14.978724 0-1.361702-1.361702-13.617021-2.723404-32.680851v-9.531914l-1.361702-2.723405zM3314.382979 377.191489c-10.893617-44.93617-5.446809-84.425532 16.340425-118.468085 19.06383-25.87234 46.297872-34.042553 81.702128-27.234042 28.595745 9.531915 44.93617 31.319149 51.744681 68.085106 6.808511 61.276596-13.617021 102.12766-61.276596 121.191489-47.659574 16.340426-77.617021 1.361702-88.510638-43.574468z m91.234042 1.361702c9.531915-6.808511 14.978723-19.06383 17.702128-38.127659 2.723404-19.06383 0-35.404255-5.446809-50.382979-10.893617-20.425532-24.510638-27.234043-40.851063-21.787234-23.148936 20.425532-31.319149 50.382979-20.425532 92.595745 9.531915 24.510638 25.87234 29.957447 49.021276 17.702127zM3456 223.319149c-1.361702-6.808511 0-14.978723 1.361702-20.425532 4.085106 8.170213 17.702128 4.085106 39.489362-12.255319 16.340426-12.255319 28.595745-20.425532 38.127659-23.148936 40.851064-16.340426 64-13.617021 68.085107 8.170212 4.085106 24.510638-12.255319 40.851064-46.297873 50.382979-1.361702 6.808511 0 20.425532 4.085107 38.12766 1.361702 5.446809 1.361702 10.893617 1.361702 13.617021 0 1.361702 1.361702 5.446809 1.361702 9.531915 0 8.170213 1.361702 14.978723 4.085106 19.06383 16.340426 34.042553 9.531915 55.829787-17.702127 62.638298-12.255319 4.085106-20.425532 2.723404-24.510638-4.085107-4.085106-6.808511-8.170213-24.510638-10.893618-54.468085 0-4.085106-1.361702-10.893617-2.723404-19.06383-1.361702-23.148936-4.085106-39.489362-6.80851-47.659574-27.234043 10.893617-43.574468 4.085106-49.021277-20.425532z" fill="#FFFFFF" p-id="10196"></path></svg>