<?xml version="1.0" standalone="no"?><!DOCTYPE svg PUBLIC "-//W3C//DTD SVG 1.1//EN" "http://www.w3.org/Graphics/SVG/1.1/DTD/svg11.dtd"><svg t="1489628335761" class="icon" style="" viewBox="0 0 1024 1024" version="1.1" xmlns="http://www.w3.org/2000/svg" p-id="3220" xmlns:xlink="http://www.w3.org/1999/xlink" width="32" height="32"><defs><style type="text/css"></style></defs><path d="M713.344 764.288c-33.984 0-61.632 27.712-61.632 61.696s27.648 61.632 61.632 61.632 61.632-27.648 61.632-61.632S747.328 764.288 713.344 764.288zM458.432 764.288c-33.984 0-61.632 27.712-61.632 61.696s27.648 61.632 61.632 61.632 61.696-27.648 61.696-61.632S492.416 764.288 458.432 764.288zM899.328 299.2c-2.752-3.584-6.976-5.696-11.52-5.696L299.712 293.504 278.464 216.512C275.328 205.504 265.216 197.76 253.824 197.76L147.328 197.76c-14.144 0-25.536 11.456-25.536 25.536 0 14.08 11.456 25.536 25.536 25.536l86.976 0 131.008 473.472c3.136 11.008 13.248 18.688 24.64 18.688l391.872 0c14.144 0 25.536-11.456 25.536-25.536 0-14.08-11.456-25.472-25.536-25.472L409.408 689.984 396.8 644.352l150.848 0.064c0.128 0 0.128 0 0.256 0l59.904 0C607.872 644.48 607.936 644.48 608 644.48l189.056 0.064c6.464 0 12.096-4.352 13.888-10.624l49.152-175.936c0.192-0.576 0.064-1.216-0.32-1.664s-0.96-0.768-1.536-0.768L344.576 455.552 330.304 404.16l542.528 0c0.384 0 0.896 0.064 1.472 0.128 1.024 0.128 1.92-0.512 2.176-1.408l25.216-91.072C902.912 307.456 902.016 302.72 899.328 299.2z" p-id="3221" fill="#ffffff"></path></svg>