<?xml version="1.0" standalone="no"?><!DOCTYPE svg PUBLIC "-//W3C//DTD SVG 1.1//EN" "http://www.w3.org/Graphics/SVG/1.1/DTD/svg11.dtd"><svg t="1489881909678" class="icon" style="" viewBox="0 0 3443 1024" version="1.1" xmlns="http://www.w3.org/2000/svg" p-id="2602" xmlns:xlink="http://www.w3.org/1999/xlink" width="215.1875" height="64"><defs><style type="text/css"></style></defs><path d="M822.402723 363.498213l104.077617 0 0 270.074553-104.077617 0 0-270.074553Z" p-id="2603" fill="#efb336"></path><path d="M3333.446809 0 108.93617 0C48.75983 0 0 48.781617 0 108.914383l0 806.171234C0 975.24017 48.75983 1024 108.93617 1024l3224.510638 0c60.17634 0 108.93617-48.75983 108.93617-108.914383L3442.382979 108.914383C3442.382979 48.781617 3393.623149 0 3333.446809 0zM733.314723 634.052085c-1.26366 56.167489-22.506213 83.161872-63.771234 80.983149-12.200851 0-30.153532-0.457532-53.923404-1.394383-2.200511-13.115915-4.684255-26.689362-7.494809-40.72034 21.874383 2.810553 39.69634 4.204936 53.444085 4.204936 20.937532 0.610043 32.354043-14.183489 34.227745-44.467745 3.442383-73.96766 5.468596-155.713362 6.100426-245.280681l-72.202894 0c-0.326809 23.878809-0.78434 44.162723-1.394383 60.851745-1.26366 122.030298-30.632851 215.933277-88.151149 281.796085-7.821617-9.673532-17.037617-20.131404-27.669787-31.35183 51.875404-56.777532 78.303319-141.508085 79.24017-254.169872 0.63183-16.384 1.089362-35.404255 1.394383-57.10434l-65.165617 0 0-35.578553 65.405277 0c0.326809-25.120681 0.39217-53.051915 0.23966-83.793702l37.038298 0c0 31.046809-0.152511 58.978043-0.457532 83.793702l109.241191 0C737.846468 471.606468 735.820255 565.705532 733.314723 634.052085zM963.518638 714.555915l-37.038298 0 0-47.278298-104.077617 0 0 47.278298-37.038298 0L785.364426 328.856511l178.154213 0L963.518638 714.555915zM1441.508766 712.682213c-68.455489-40.56783-131.747404-126.060936-189.875745-256.501106-4.684255-10.457872-9.303149-20.436426-13.834894-29.957447-36.253957 124.034723-103.685447 220.465021-202.316255 289.269106-8.43166-12.484085-17.974468-24.18383-28.606638-35.099234 101.419574-63.814809 169.722553-164.776851 204.887149-302.842553-24.532426-40.872851-49.217362-68.651574-74.076596-83.314383l30.937872-22.005106c34.990298 21.525787 73.444766 76.756426 115.341617 165.691915 58.455149 127.629617 121.899574 205.497191 190.355064 233.580936L1441.508766 712.682213zM1674.283574 706.124255c-22.201191-28.410553-46.581106-57.256851-73.139745-86.604255-11.242213 35.578553-38.28017 71.941447-81.113872 109.066894-6.884766-9.673532-15.163915-19.194553-24.859234-28.563064 36.580766-27.146894 60.786383-56.167489 72.660426-87.061787 11.569021-26.820085 17.342638-72.398979 17.342638-136.671319L1585.173787 368.64l33.748426 0 0 94.077277c0 60.524936-4.226723 107.52-12.658383 140.898043l13.595234-12.636596c31.874723 33.094809 59.871319 63.182979 83.924426 90.329872L1674.283574 706.124255zM1707.116936 615.794383l-14.532085-30.414979c10.937191-6.862979 19.06383-16.231489 24.379915-28.083745 17.211915-41.504681 33.443404-91.441021 48.75983-149.787234l35.643915 8.43166c-18.737021 57.73617-37.365106 110.940596-55.797106 159.613277 26.558638-1.546894 54.707745-3.420596 84.381957-5.621106-7.494809-27.473702-15.468936-55.230638-23.922383-83.314383l32.354043-9.368511c14.379574 44.947064 28.27983 92.072851 41.722553 141.355574l-35.164596 10.305362c-2.483745-9.368511-4.836766-18.867745-7.015489-28.563064-33.138383 2.200511-62.834383 4.836766-89.088 7.95234C1735.091745 609.846468 1721.169702 612.352 1707.116936 615.794383zM1938.257702 642.004426c-2.83234 50.546383-28.759149 75.819574-77.824 75.819574-26.885447 0-55.492085-0.610043-85.798128-1.873702-1.873702-12.484085-4.379234-25.273191-7.516596-38.389106 30.32783 3.420596 58.150128 5.294298 83.466894 5.621106 32.811574-0.326809 50.176-16.536511 52.049702-48.672681 2.200511-53.051915 3.747404-140.113702 4.684255-261.185362l-156.606638 0c-11.547234 27.146894-23.595574 51.962553-36.101447 74.425191-9.063489-5.926128-20.153191-11.699745-33.290894-17.320851l0 153.534638-33.770213 0L1647.550638 327.91966l-90.961702 0 0 258.854128-33.748426 0L1522.840511 293.735489l158.48034 0 0 134.340085c31.264681-47.73583 54.533447-101.572085 69.849872-161.486979l37.038298 8.43166c-7.494809 22.462638-15.316426 43.835915-23.443064 64.11983l179.112851 0C1942.005106 490.801021 1940.131404 591.763064 1938.257702 642.004426zM2111.466213 727.192511 2076.323404 727.192511l0-172.947064c-25.011745 9.368511-52.507234 19.891745-82.530043 31.591489l-7.015489-39.783489c28.737362-9.521021 58.585872-19.652085 89.545532-30.414979l0-110.461277-42.441532 0c-6.231149 29.652426-13.834894 56.799319-22.724085 81.440681-10.022128-7.189787-20.174979-14.052766-30.48034-20.588936 17.516936-42.746553 28.606638-94.077277 33.290894-153.99217l33.748426 5.621106c-2.178723 19.499574-4.836766 38.214809-7.95234 56.167489L2076.323404 373.825362l0-105.319489 35.142809 0 0 105.319489 46.428596 0 0 31.35183-46.428596 0 0 98.06434c15.316426-5.621106 30.95966-11.307574 46.886128-17.081191 1.546894 13.725957 3.268085 25.6 5.141787 35.578553-15.468936 5.621106-32.811574 12.026553-52.049702 19.194553L2111.444426 727.192511zM2419.973447 633.115234c-3.420596 52.115064-28.454128 78.172596-75.013447 78.172596-17.495149 0-38.12766-0.457532-61.875745-1.394383-1.568681-11.547234-3.769191-24.81566-6.579745-39.783489 27.190468 3.137362 48.75983 4.684255 64.708085 4.684255 25.316766 0 39.238809-14.357787 41.722553-43.073362 5.642894-65.841021 10.63217-150.571574 15.011404-254.169872l-35.861787 0c-8.126638 79.566979-21.329702 142.292426-39.609191 188.17634-25.011745 59.304851-67.540426 110.156255-127.542468 152.597787-6.862979-9.673532-14.858894-19.194553-23.922383-28.563064 58.455149-41.19966 98.93583-88.477957 121.420255-141.834894 18.126979-43.835915 29.783149-100.635234 34.946723-170.37617l-41.722553 0c-8.453447 59.609872-21.024681 107.498213-37.735489 143.708596-20.632511 40.872851-48.91234 77.562553-84.883064 110.003745-7.79983-9.978553-15.926468-19.194553-24.379915-27.626213 35.643915-30.894298 62.07183-63.335489 79.261957-97.367149 16.732596-34.641702 27.800511-77.540766 33.269106-128.718979l-33.748426 0c-15.948255 35.404255-31.896511 65.536-47.822979 90.329872-7.821617-5.316085-17.821957-11.242213-30.001021-17.778383 30.937872-47.430809 59.217702-109.219404 84.861277-185.365787l34.227745 10.305362c-8.910979 24.81566-17.821957 47.910128-26.732936 69.283404l203.470979 0C2429.211234 470.059574 2424.04766 566.315574 2419.973447 633.115234zM2933.585702 630.304681l-187.065191 0 0 98.304-36.580766 0L2709.939745 630.304681l-228.330213 0 0-34.641702 228.330213 0 0-80.046298-172.053787 0 0-34.162383c21.090043-37.604766 40.458894-74.12017 58.12834-109.524426l-96.582809 0 0-34.641702 113.446128 0c12.200851-25.273191 23.443064-49.93634 33.770213-73.96766l35.164596 10.762894c-10.327149 22.157617-20.262128 43.225872-29.783149 63.182979l263.734468 0 0 34.641702-280.619574 0c-20.610723 42.289021-39.478468 78.956936-56.494298 110.003745l131.268085 0 0-90.329872 36.580766 0 0 90.329872 135.494809 0 0 33.704851-135.494809 0 0 80.046298 187.065191 0L2933.563915 630.304681z" p-id="2604" fill="#efb336"></path></svg>