<?xml version="1.0" standalone="no"?><!DOCTYPE svg PUBLIC "-//W3C//DTD SVG 1.1//EN" "http://www.w3.org/Graphics/SVG/1.1/DTD/svg11.dtd"><svg t="1489884148828" class="icon" style="" viewBox="0 0 1024 1024" version="1.1" xmlns="http://www.w3.org/2000/svg" p-id="2918" xmlns:xlink="http://www.w3.org/1999/xlink" width="16" height="16"><defs><style type="text/css"></style></defs><path d="M898.117818 128.395636c53.178182 0 96.186182 43.077818 96.232727 96.209455L994.350545 801.908364c0 53.131636-43.054545 96.232727-96.186182 96.232727L128.395636 898.141091C75.264 898.141091 32.186182 855.04 32.186182 801.908364L32.186182 224.605091C32.186182 171.473455 75.264 128.395636 128.395636 128.395636L898.117818 128.395636M128.395636 705.722182l320.721455 0c17.710545 0 32.069818-14.359273 32.069818-32.093091L481.186909 352.907636c0-17.710545-14.359273-32.069818-32.069818-32.069818L128.395636 320.837818c-17.710545 0-32.069818 14.336-32.069818 32.046545l0 320.744727C96.325818 691.362909 110.685091 705.722182 128.395636 705.722182M609.489455 417.024l288.605091 0c17.757091 0 32.093091-14.359273 32.093091-32.069818 0-17.710545-14.336-32.069818-32.093091-32.069818L609.489455 352.884364c-17.757091 0-32.069818 14.359273-32.069818 32.069818C577.419636 402.664727 591.732364 417.024 609.489455 417.024M609.489455 545.326545l288.605091 0c17.757091 0 32.093091-14.359273 32.093091-32.069818 0-17.710545-14.336-32.069818-32.093091-32.069818L609.489455 481.186909c-17.757091 0-32.069818 14.359273-32.069818 32.069818C577.419636 530.967273 591.732364 545.326545 609.489455 545.326545M609.489455 673.582545l288.605091 0c17.757091 0 32.093091-14.312727 32.093091-32.046545s-14.336-32.069818-32.093091-32.069818L609.489455 609.466182c-17.757091 0-32.069818 14.359273-32.069818 32.069818S591.732364 673.582545 609.489455 673.582545M898.117818 96.069818 128.395636 96.069818c-70.865455 0-128.535273 57.669818-128.535273 128.535273L-0.139636 801.908364c0 70.888727 57.669818 128.535273 128.535273 128.535273l769.768727 0c70.865455 0 128.488727-57.669818 128.488727-128.535273L1026.653091 224.605091C1026.606545 153.716364 968.913455 96.069818 898.117818 96.069818L898.117818 96.069818zM448.861091 673.629091l-320.465455-0.232727 0 0L128.651636 352.884364l320.465455 0.279273L448.861091 673.629091 448.861091 673.629091z" p-id="2919" fill="#ffffff"></path></svg>