<?xml version="1.0" standalone="no"?><!DOCTYPE svg PUBLIC "-//W3C//DTD SVG 1.1//EN" "http://www.w3.org/Graphics/SVG/1.1/DTD/svg11.dtd"><svg t="1489625572820" class="icon" style="" viewBox="0 0 1024 1024" version="1.1" xmlns="http://www.w3.org/2000/svg" p-id="2397" xmlns:xlink="http://www.w3.org/1999/xlink" width="32" height="32"><defs><style type="text/css"></style></defs><path d="M908.8 416c-6.4-12.8-19.2-25.6-32-25.6L640 364.8 544 153.6c-12.8-25.6-57.6-25.6-70.4 0L384 364.8 147.2 390.4C128 396.8 115.2 403.2 115.2 416 108.8 435.2 115.2 448 121.6 454.4l172.8 160-51.2 230.4c0 12.8 0 32 12.8 38.4 12.8 6.4 25.6 12.8 38.4 0L512 768l204.8 115.2c6.4 6.4 12.8 6.4 19.2 6.4 6.4 0 12.8 0 19.2-6.4 12.8-6.4 19.2-25.6 12.8-38.4l-51.2-230.4 172.8-160C908.8 448 915.2 435.2 908.8 416z" p-id="2398" fill="#f4ea2a"></path></svg>