<?xml version="1.0" standalone="no"?><!DOCTYPE svg PUBLIC "-//W3C//DTD SVG 1.1//EN" "http://www.w3.org/Graphics/SVG/1.1/DTD/svg11.dtd"><svg t="1489660522532" class="icon" style="" viewBox="0 0 1024 1024" version="1.1" xmlns="http://www.w3.org/2000/svg" p-id="5628" xmlns:xlink="http://www.w3.org/1999/xlink" width="32" height="32"><defs><style type="text/css"></style></defs><path d="M859.777775 37.844933 164.637688 37.844933c-34.896788 0-63.193251 28.29544-63.193251 63.195298l0 821.529659c0 34.898835 28.29544 63.195298 63.193251 63.195298l695.140087 0c34.896788 0 63.193251-28.296463 63.193251-63.195298L922.971026 101.040231C922.971026 66.142419 894.674563 37.844933 859.777775 37.844933L859.777775 37.844933zM859.777775 875.175463c0 26.182312-21.22951 47.396473-47.396473 47.396473L212.035184 922.571936c-26.197662 0-47.396473-21.214161-47.396473-47.396473L164.638711 148.437727c0-26.166963 21.198811-47.396473 47.396473-47.396473l600.346117 0c26.166963 0 47.39852 21.22951 47.39852 47.396473L859.779821 875.175463 859.777775 875.175463 859.777775 875.175463zM449.01448 259.027451 259.431657 259.027451l0 63.193251 189.582823 0L449.01448 259.027451 449.01448 259.027451zM575.403029 448.610274 259.431657 448.610274l0 63.195298 315.971371 0L575.403029 448.610274 575.403029 448.610274zM259.431657 701.389418l442.358897 0 0-63.193251L259.431657 638.196167 259.431657 701.389418 259.431657 701.389418z" p-id="5629" fill="#ffffff"></path></svg>