<?xml version="1.0" standalone="no"?><!DOCTYPE svg PUBLIC "-//W3C//DTD SVG 1.1//EN" "http://www.w3.org/Graphics/SVG/1.1/DTD/svg11.dtd"><svg t="1489884198324" class="icon" style="" viewBox="0 0 1024 1024" version="1.1" xmlns="http://www.w3.org/2000/svg" p-id="3728" xmlns:xlink="http://www.w3.org/1999/xlink" width="16" height="16"><defs><style type="text/css"></style></defs><path d="M514.051902 24.20738c118.873012 0 241.83899 0 360.722839 0 98.375672 0 139.363127 45.091258 139.363127 143.470543 0 192.658379 0 385.316757 0 577.975136 0 94.279094-45.084033 139.36674-139.363127 139.36674-28.694109 0-61.488408 4.100191-90.186129 0-94.279094-12.296959-176.257617 4.100191-233.649446 90.182516-24.590306 32.790687-53.284414 32.790687-81.978523 0-32.794299-32.794299-61.488408-65.588598-94.279094-94.282707-16.39715-16.393537-28.694109-40.991068-8.200381-61.484795 20.493728-20.500953 40.991068-16.39715 61.488408 0 28.694109 24.593918 49.187836 73.781754 86.082326 69.681564 28.694109-4.100191 53.284414-45.087646 81.978523-69.681564 16.39715-16.39715 40.99468-16.39715 61.484795-16.39715 73.788979 0 147.570733 0 217.259522 0 40.987455 0 61.484795-16.39715 61.484795-61.488408 0-192.654766 0-381.212954 0-573.871333 0-40.991068-16.39715-61.488408-61.484795-61.488408-245.95363 0-487.796232 0-733.739025 0-40.991068 0-57.388217 20.493728-57.388217 57.388217 0 192.658379 0 381.220179 0 573.874945 0 45.087646 16.39715 69.685176 65.584986 65.584986 28.694109 0 61.488408 0 90.178904 0 20.49734 0 36.890877 16.39715 36.890877 36.890877 0 20.49734-12.296959 36.89449-32.794299 40.991068-53.288027 4.100191-106.576053 12.296959-159.86408-8.200381-45.091258-16.393537-73.785367-53.284414-73.785367-106.572441 0-209.055528 0-418.111056 0-623.066394 0-73.781754 49.187836-118.873012 131.173584-118.873012C268.105496 24.20738 391.078699 24.20738 514.051902 24.20738z" p-id="3729" fill="#e6e6e6"></path><path d="M821.483102 438.218246c-4.100191 36.890877-24.597531 57.388217-57.384605 57.388217-36.89449 0-61.488408-24.593918-57.39183-61.488408 0-32.794299 24.597531-57.388217 57.39183-57.388217C800.985762 376.729838 821.483102 401.323756 821.483102 438.218246z" p-id="3730" fill="#e6e6e6"></path><path d="M358.2844 434.118055c-4.100191 36.890877-24.593918 57.388217-57.388217 57.388217-36.890877 0-61.488408-20.493728-61.488408-57.388217 0-32.794299 20.49734-57.388217 53.288027-57.388217C333.690482 376.729838 354.184209 397.227178 358.2844 434.118055z" p-id="3731" fill="#e6e6e6"></path><path d="M591.933846 438.218246c-4.100191 32.794299-28.694109 57.388217-57.39183 53.288027-36.887265 0-61.484795-24.593918-57.384605-61.484795 0-32.794299 24.593918-57.388217 57.384605-53.288027C567.336316 376.729838 587.833656 401.323756 591.933846 438.218246z" p-id="3732" fill="#e6e6e6"></path></svg>