<?xml version="1.0" standalone="no"?><!DOCTYPE svg PUBLIC "-//W3C//DTD SVG 1.1//EN" "http://www.w3.org/Graphics/SVG/1.1/DTD/svg11.dtd"><svg t="1489903391053" class="icon" style="" viewBox="0 0 1024 1024" version="1.1" xmlns="http://www.w3.org/2000/svg" p-id="8030" xmlns:xlink="http://www.w3.org/1999/xlink" width="16" height="16"><defs><style type="text/css"></style></defs><path d="M213.6 1008.576c0.288-0.064 0.448-0.064-0.352-0.064-0.768 0-0.64 0.064-0.32 0.064-0.16 0.064-0.032 0.064 0.32 0.064s0.544 0 0.352-0.064z" p-id="8031" fill="#515151"></path><path d="M1020 977.472c2.368 4.416 4 9.184 4 14.528 0 17.664-14.624 32-32.64 32s-32.672-14.336-32.672-32l-0.8 0c-44.864-201.28-227.328-352-445.888-352s-401.12 150.72-445.92 352l-0.832 0c0 17.664-14.656 32-32.64 32s-32.608-14.336-32.608-32c0-5.344 1.6-10.112 4-14.528 40.352-179.328 175.168-323.904 351.904-378.08-100.928-54.464-170.112-158.464-170.112-279.392 0-176.736 146.048-320 326.208-320 180.128 0 326.176 143.264 326.176 320 0 120.928-69.184 224.928-170.08 279.36 176.736 54.208 311.456 198.752 351.904 378.112l0 0zM772.928 320c0-141.376-116.832-256-260.928-256-144.16 0-260.96 114.624-260.96 256s116.832 255.968 260.96 255.968c144.096 0 260.928-114.592 260.928-255.968l0 0z" p-id="8032" fill="#515151"></path></svg>